<!DOCTYPE svg PUBLIC "-//W3C//DTD SVG 1.1//EN" "http://www.w3.org/Graphics/SVG/1.1/DTD/svg11.dtd">
<!-- Uploaded to: SVG Repo, www.svgrepo.com, Transformed by: SVG Repo Mixer Tools -->
<svg width="256px" height="256px" viewBox="-16 -16 48.00 48.00" fill="none" xmlns="http://www.w3.org/2000/svg" stroke="#ff0000" stroke-width="0.00016" transform="rotate(0)">
<g id="SVGRepo_bgCarrier" stroke-width="0" transform="translate(0,0), scale(1)">
<path transform="translate(-16, -16), scale(1.5)" d="M16,27.638749171048403C18.56737334313219,27.86066636939085,21.68416958981919,30.806290340733536,23.48316808231175,28.961227320141713C25.559833693086063,26.8313873338582,22.924196876690747,23.147607421018186,23.26080425683061,20.192027292214334C23.434366672258758,18.668063004997926,24.408834542326936,17.431632602734076,24.95930629596114,16C25.814109750549424,13.776880491253127,28.46664728332301,11.547470390896214,27.404377927302747,9.415679333731536C26.372543603224987,7.344966127068558,23.05575924019416,8.222177398730352,20.808870363980535,7.67079220257348C19.187544336781645,7.272919758143653,17.646863152944327,6.890625013183461,16,6.617051761597395C14.035446749579364,6.2907045361641964,12.077739110524046,5.32936896562582,10.170857558958236,5.903629127559588C8.143560433090936,6.514152615414644,6.6633588851527294,8.19757396849599,5.319374186415649,9.833537811413402C3.7990838450330946,11.684109496921096,1.4793924301215353,13.638167687546304,1.8764395471662283,15.999999999999998C2.290319216429486,18.461960644896404,5.8833498304712215,18.960031291663114,7.209233069650399,21.075351653620594C8.461521582238804,23.073258642296025,7.338814994834169,26.31839051196936,9.22822056245058,27.729066043485773C11.068468535179587,29.103039335163157,13.711943890713266,27.44097544141866,16,27.638749171048403" fill="#4b4bff" strokewidth="0"/>
</g>
<g id="SVGRepo_tracerCarrier" stroke-linecap="round" stroke-linejoin="round"/>
<g id="SVGRepo_iconCarrier"> <path d="M16 8C16 6.8804 15.4743 5.88358 14.6563 5.24291C14.7817 4.21146 14.4486 3.13488 13.6569 2.3432C12.8652 1.55152 11.7886 1.21838 10.7572 1.3438C10.1165 0.525732 9.11964 0 8 0C6.8804 0 5.88358 0.525698 5.24291 1.34372C4.21145 1.2183 3.13485 1.55143 2.34316 2.34312C1.55147 3.13481 1.21834 4.21141 1.34376 5.24288C0.525715 5.88354 0 6.88038 0 8C0 9.1196 0.525698 10.1164 1.34372 10.7571C1.2183 11.7886 1.55143 12.8652 2.34312 13.6568C3.13481 14.4485 4.21141 14.7817 5.24288 14.6562C5.88354 15.4743 6.88038 16 8 16C9.1196 16 10.1164 15.4743 10.7571 14.6563C11.7885 14.7817 12.8651 14.4486 13.6568 13.6569C14.4485 12.8652 14.7816 11.7886 14.6562 10.7572C15.4743 10.1165 16 9.11964 16 8Z" fill="#4b4bff"/> </g>
</svg>